<?xml version="1.0" encoding="utf-8"?>
<!-- Svg Vector Icons : http://www.onlinewebfonts.com/icon -->
<!DOCTYPE svg PUBLIC "-//W3C//DTD SVG 1.1//EN" "http://www.w3.org/Graphics/SVG/1.1/DTD/svg11.dtd">
<svg version="1.1" xmlns="http://www.w3.org/2000/svg" xmlns:xlink="http://www.w3.org/1999/xlink" x="0px" y="0px" viewBox="0 0 1000 1000" enable-background="new 0 0 1000 1000" xml:space="preserve">
<metadata> Svg Vector Icons : http://www.onlinewebfonts.com/icon </metadata>
<g><path d="M500,990C229.8,990,10,770.2,10,500S229.8,10,500,10s490,219.8,490,490c0,161.8-79.8,313.1-213.5,404.6c-18.6,12.7-43.8,8-56.6-10.6c-12.7-18.6-7.9-43.9,10.7-56.6C842,761,908.6,634.9,908.6,499.9c0-225.3-183.3-408.6-408.6-408.6C274.7,91.4,91.4,274.7,91.4,500S274.7,908.6,500,908.6c22.5,0,40.7,18.3,40.7,40.7C540.7,971.7,522.5,990,500,990z M317,474.9c-8.9,0-17.8-3.5-24.6-10.2c-13.7-13.7-13.7-35.7-0.1-49.4l184.1-184.2c6.5-6.6,15.4-10,24.6-10l0,0c9.2,0,18.1,3.5,24.6,10l182,181.7c13.6,13.5,13.7,35.6,0,49.2c-13.6,13.7-35.6,13.7-49.2,0.1L501,304.9L341.7,464.7C334.9,471.4,325.9,474.9,317,474.9z M502.5,779c-19.3,0-34.4-15.7-34.4-34.9V285c0-19.3,15.1-34.9,34.4-34.9c19.2,0,34.4,15.6,34.4,34.9v459.1C536.9,763.3,521.7,779,502.5,779z"/></g>
</svg>