<?xml version="1.0" encoding="utf-8"?>
<!-- Svg Vector Icons : http://www.onlinewebfonts.com/icon -->
<!DOCTYPE svg PUBLIC "-//W3C//DTD SVG 1.1//EN" "http://www.w3.org/Graphics/SVG/1.1/DTD/svg11.dtd">
<svg version="1.1" xmlns="http://www.w3.org/2000/svg" xmlns:xlink="http://www.w3.org/1999/xlink" x="0px" y="0px" viewBox="0 0 1000 1000" enable-background="new 0 0 1000 1000" xml:space="preserve">
<metadata> Svg Vector Icons : http://www.onlinewebfonts.com/icon </metadata>
<g><path d="M988.2,149c0-0.1,0-0.6,0-0.7c-4-13.5-16-23.9-30.8-23.9H42.7c-18,0-32.7,15.6-32.7,33.7v134.2c0,18.1,14.6,32.7,32.7,32.7c18,0,32.7-14.6,32.7-32.7v-58.7L478,600.1c6.2,5.7,14.1,8.5,22,8.5c7.9,0,15.8-2.8,22-8.5l402.7-366.5v576.8H75.3v-260c0-18.1-14.6-32.7-32.7-32.7c-18,0-32.7,14.6-32.7,32.7v286.5c0,18.1,14.6,38.8,32.7,38.8h914.7c18,0,32.7-20.8,32.7-38.8V158C990,154.8,989,151.9,988.2,149z M500,530.8L125.3,189.7h749.5L500,530.8z"/></g>
</svg>